<?xml version="1.0" encoding="utf-8"?>
<!-- Generator: Adobe Illustrator 15.1.0, SVG Export Plug-In . SVG Version: 6.00 Build 0)  -->
<!DOCTYPE svg PUBLIC "-//W3C//DTD SVG 1.1//EN" "http://www.w3.org/Graphics/SVG/1.1/DTD/svg11.dtd">
<svg version="1.1" id="Layer_1" xmlns="http://www.w3.org/2000/svg" xmlns:xlink="http://www.w3.org/1999/xlink" x="0px" y="0px"
	 width="56.693px" height="51.024px" viewBox="0 0 56.693 51.024" enable-background="new 0 0 56.693 51.024" xml:space="preserve">
<rect x="21.369" y="35.581" fill="#FFFFFF" width="0.781" height="7.416"/>
<rect x="26.917" y="35.306" fill="#FFFFFF" width="0.685" height="6.416"/>
<rect x="8.041" y="17.414" fill="#9EA0A3" stroke="#FFFFFF" stroke-linecap="round" stroke-miterlimit="10" width="30.5" height="18.167"/>
<polyline fill="none" stroke="#FFFFFF" stroke-miterlimit="10" points="8.041,17.414 23.291,26.497 38.541,17.414 "/>
<g>
	<path fill="#9EA0A3" stroke="#FFFFFF" d="M41.921,23.588c-0.921,0.153-1.827,0.121-2.69-0.055l2.919,2.882l3.052,3.015l0.652-4.241
		l0.653-4.24l-0.074,0.025C45.333,22.314,43.766,23.282,41.921,23.588z"/>
	<path fill="#9EA0A3" stroke="#FFFFFF" d="M41.921,23.588c1.845-0.307,3.411-1.274,4.512-2.615c1.309-1.596,1.954-3.722,1.59-5.917
		c-0.672-4.04-4.491-6.772-8.533-6.102c-4.04,0.672-6.771,4.492-6.1,8.532c0.518,3.12,2.916,5.452,5.841,6.047
		C40.094,23.709,41,23.741,41.921,23.588z"/>
</g>
</svg>
