<?xml version="1.0" encoding="utf-8"?>
<!-- Generator: Adobe Illustrator 15.1.0, SVG Export Plug-In . SVG Version: 6.00 Build 0)  -->
<!DOCTYPE svg PUBLIC "-//W3C//DTD SVG 1.1//EN" "http://www.w3.org/Graphics/SVG/1.1/DTD/svg11.dtd">
<svg version="1.1" id="Layer_1" xmlns="http://www.w3.org/2000/svg" xmlns:xlink="http://www.w3.org/1999/xlink" x="0px" y="0px"
	 width="56.693px" height="51.023px" viewBox="0 0 56.693 51.023" enable-background="new 0 0 56.693 51.023" xml:space="preserve">
<rect x="21.369" y="35.581" fill="#231F20" width="0.781" height="7.416"/>
<rect x="26.917" y="35.306" fill="#231F20" width="0.687" height="6.416"/>
<rect x="8.041" y="17.414" fill="#E6E6F3" stroke="#231F20" stroke-linecap="round" stroke-miterlimit="10" width="30.5" height="18.167"/>
<polyline fill="none" stroke="#231F20" stroke-miterlimit="10" points="8.041,17.414 23.291,26.497 38.541,17.414 "/>
<g display="none">
	<path display="inline" fill="#9EA0A3" stroke="#FFFFFF" d="M41.921,23.588c-0.921,0.153-1.825,0.121-2.688-0.055l2.919,2.882
		l3.052,3.016l0.652-4.241l0.651-4.239l-0.072,0.024C45.333,22.314,43.766,23.282,41.921,23.588z"/>
	<path display="inline" fill="#9EA0A3" stroke="#FFFFFF" d="M41.921,23.588c1.847-0.307,3.411-1.273,4.514-2.614
		c1.309-1.597,1.954-3.723,1.59-5.917c-0.672-4.04-4.491-6.771-8.533-6.103c-4.04,0.672-6.771,4.491-6.1,8.531
		c0.518,3.12,2.916,5.452,5.841,6.048C40.094,23.709,41,23.741,41.921,23.588z"/>
</g>
</svg>
