<?xml version="1.0" encoding="utf-8"?>
<!-- Generator: Adobe Illustrator 15.1.0, SVG Export Plug-In . SVG Version: 6.00 Build 0)  -->
<!DOCTYPE svg PUBLIC "-//W3C//DTD SVG 1.1//EN" "http://www.w3.org/Graphics/SVG/1.1/DTD/svg11.dtd">
<svg version="1.1" id="Layer_1" xmlns="http://www.w3.org/2000/svg" xmlns:xlink="http://www.w3.org/1999/xlink" x="0px" y="0px"
	 width="56.693px" height="51.023px" viewBox="0 0 56.693 51.023" enable-background="new 0 0 56.693 51.023" xml:space="preserve">
<path fill="#E6E6F3" stroke="#231F20" stroke-miterlimit="10" d="M42.671,6.948c-1.851,0-3.436,1.178-4.205,2.873
	c0.002-0.054,0.017-0.104,0.017-0.157c0-2.354-1.744-4.263-3.897-4.263c-2.151,0-3.897,1.909-3.897,4.263
	c0,2.354,1.746,4.263,3.897,4.263c1.485,0,2.762-0.918,3.418-2.254c-0.011,0.143-0.039,0.277-0.039,0.423
	c0,2.845,2.108,5.148,4.709,5.148c2.602,0,4.706-2.306,4.706-5.148C47.377,9.253,45.271,6.948,42.671,6.948z"/>
<path display="none" fill="#9EA0A3" stroke="#FFFFFF" stroke-miterlimit="10" d="M42.667,24.258H12.388
	c0-7.709,6.776-13.961,15.139-13.961S42.667,16.549,42.667,24.258z"/>
<path display="none" fill="#9EA0A3" stroke="#FFFFFF" stroke-miterlimit="10" d="M36.051,12.72c0,0-6.169,4.305-3.981,11.537"/>
<path display="none" fill="none" stroke="#FFFFFF" stroke-miterlimit="10" d="M12.388,24.258c0,0-16.149,8.411-1.18,15.813
	c0,0,6.896,2.859,6.896,5.552"/>
</svg>
